<svg width="25" height="26" viewBox="0 0 25 26" fill="none" xmlns="http://www.w3.org/2000/svg">
<path d="M22.3214 0.499939H2.67857C1.19978 0.499939 0 1.69972 0 3.17851V22.8214C0 24.3002 1.19978 25.4999 2.67857 25.4999H22.3214C23.8002 25.4999 25 24.3002 25 22.8214V3.17851C25 1.69972 23.8002 0.499939 22.3214 0.499939ZM15.4743 21.9118C15.0056 21.9955 14.8326 21.7053 14.8326 21.4653C14.8326 21.164 14.8438 19.6238 14.8438 18.3794C14.8438 17.5089 14.5536 16.9564 14.2132 16.6662C16.2779 16.4374 18.4542 16.1528 18.4542 12.587C18.4542 11.5714 18.0915 11.0636 17.5 10.4107C17.5949 10.1707 17.9129 9.18298 17.4051 7.89949C16.6295 7.65954 14.8549 8.89838 14.8549 8.89838C14.1183 8.6919 13.3203 8.58588 12.5335 8.58588C11.7467 8.58588 10.9487 8.6919 10.2121 8.89838C10.2121 8.89838 8.4375 7.65954 7.66183 7.89949C7.15402 9.1774 7.46652 10.1651 7.56697 10.4107C6.97545 11.0636 6.69643 11.5714 6.69643 12.587C6.69643 16.1361 8.7779 16.4374 10.8426 16.6662C10.5748 16.9062 10.3348 17.3191 10.2511 17.9107C9.72098 18.1506 8.36496 18.5636 7.5558 17.135C7.04799 16.2533 6.13281 16.1807 6.13281 16.1807C5.22879 16.1696 6.07143 16.7499 6.07143 16.7499C6.67411 17.029 7.09821 18.1004 7.09821 18.1004C7.63951 19.7578 10.2288 19.1997 10.2288 19.1997C10.2288 19.9754 10.24 21.2365 10.24 21.4653C10.24 21.7053 10.0725 21.9955 9.59821 21.9118C5.91518 20.6785 3.33705 17.174 3.33705 13.0781C3.33705 7.9553 7.25446 4.06579 12.3772 4.06579C17.5 4.06579 21.6518 7.9553 21.6518 13.0781C21.6574 17.174 19.1574 20.6841 15.4743 21.9118ZM10 18.5022C9.89397 18.5245 9.79353 18.4799 9.78237 18.4073C9.77121 18.3236 9.84375 18.2511 9.94978 18.2287C10.0558 18.2176 10.1563 18.2622 10.1674 18.3348C10.1842 18.4073 10.1116 18.4799 10 18.5022ZM9.46987 18.4519C9.46987 18.5245 9.38616 18.5859 9.27455 18.5859C9.15179 18.597 9.06808 18.5357 9.06808 18.4519C9.06808 18.3794 9.15179 18.318 9.26339 18.318C9.36942 18.3069 9.46987 18.3682 9.46987 18.4519ZM8.70536 18.3906C8.68304 18.4631 8.57143 18.4966 8.47656 18.4631C8.37054 18.4408 8.29799 18.3571 8.32031 18.2845C8.34263 18.212 8.45424 18.1785 8.54911 18.2008C8.66071 18.2343 8.73326 18.318 8.70536 18.3906ZM8.01897 18.0892C7.96875 18.1506 7.86272 18.1394 7.77902 18.0557C7.69531 17.9832 7.67299 17.8772 7.7288 17.8269C7.77902 17.7656 7.88505 17.7767 7.96875 17.8604C8.0413 17.933 8.0692 18.0446 8.01897 18.0892ZM7.51116 17.5814C7.46094 17.6149 7.36607 17.5814 7.30469 17.4977C7.2433 17.414 7.2433 17.3191 7.30469 17.2801C7.36607 17.2299 7.46094 17.2689 7.51116 17.3526C7.57255 17.4363 7.57255 17.5368 7.51116 17.5814V17.5814ZM7.14844 17.0401C7.09822 17.0903 7.01451 17.0624 6.95313 17.0066C6.89174 16.9341 6.88058 16.8504 6.9308 16.8113C6.98103 16.7611 7.06473 16.789 7.12612 16.8448C7.1875 16.9174 7.19866 17.0011 7.14844 17.0401ZM6.77455 16.6272C6.75223 16.6774 6.67969 16.6886 6.6183 16.6495C6.54576 16.616 6.51228 16.5546 6.5346 16.5044C6.55692 16.4709 6.6183 16.4542 6.69085 16.4821C6.76339 16.5211 6.79688 16.5825 6.77455 16.6272Z" fill="#6A47B7" fill-opacity="0.5"/>
</svg>
