<svg width="25" height="26" viewBox="0 0 25 26" fill="none" xmlns="http://www.w3.org/2000/svg">
<path d="M23.2143 0.499939H1.78013C0.797991 0.499939 0 1.30909 0 2.30239V23.6975C0 24.6908 0.797991 25.4999 1.78013 25.4999H23.2143C24.1964 25.4999 25 24.6908 25 23.6975V2.30239C25 1.30909 24.1964 0.499939 23.2143 0.499939ZM7.5558 21.9285H3.85045V9.99771H7.56138V21.9285H7.5558ZM5.70313 8.36824C4.51451 8.36824 3.55469 7.40284 3.55469 6.21981C3.55469 5.03677 4.51451 4.07137 5.70313 4.07137C6.88616 4.07137 7.85156 5.03677 7.85156 6.21981C7.85156 7.40842 6.89174 8.36824 5.70313 8.36824V8.36824ZM21.4453 21.9285H17.74V16.1249C17.74 14.741 17.7121 12.9609 15.8147 12.9609C13.8839 12.9609 13.5882 14.4676 13.5882 16.0245V21.9285H9.88281V9.99771H13.4375V11.6272H13.4877C13.9844 10.6897 15.1953 9.70195 16.9978 9.70195C20.7478 9.70195 21.4453 12.174 21.4453 15.3883V21.9285V21.9285Z" fill="#6A47B7" fill-opacity="0.5"/>
</svg>
