<svg width="25" height="26" viewBox="0 0 25 26" fill="none" xmlns="http://www.w3.org/2000/svg">
<path d="M22.3214 0.499939H2.67857C1.19978 0.499939 0 1.69972 0 3.17851V22.8214C0 24.3002 1.19978 25.4999 2.67857 25.4999H22.3214C23.8002 25.4999 25 24.3002 25 22.8214V3.17851C25 1.69972 23.8002 0.499939 22.3214 0.499939ZM19.5926 9.36155C19.6038 9.5178 19.6038 9.67963 19.6038 9.83588C19.6038 14.674 15.9208 20.2488 9.19085 20.2488C7.11496 20.2488 5.18973 19.6461 3.57143 18.6082C3.86719 18.6417 4.15179 18.6528 4.45313 18.6528C6.1663 18.6528 7.73996 18.0725 8.99554 17.0903C7.38839 17.0569 6.03795 16.0022 5.57478 14.5513C6.13839 14.635 6.64621 14.635 7.22656 14.4843C5.55246 14.1439 4.29688 12.6707 4.29688 10.8906V10.8459C4.78237 11.1194 5.35156 11.2868 5.94866 11.3091C5.44667 10.9752 5.03515 10.5222 4.75082 9.99054C4.4665 9.45889 4.31821 8.86512 4.3192 8.26222C4.3192 7.58141 4.49777 6.95641 4.81585 6.41512C6.6183 8.6361 9.32478 10.087 12.3605 10.2432C11.8415 7.75998 13.6998 5.74547 15.9319 5.74547C16.9866 5.74547 17.9353 6.18632 18.6049 6.90061C19.4308 6.74436 20.2232 6.43744 20.9263 6.01891C20.6529 6.86713 20.0781 7.58141 19.3192 8.03342C20.0558 7.9553 20.7701 7.74882 21.4286 7.46423C20.9319 8.19525 20.3069 8.84257 19.5926 9.36155Z" fill="#6A47B7" fill-opacity="0.5"/>
</svg>
